<?xml version="1.0" encoding="UTF-8" standalone="no"?>
<!-- Created with Inkscape (http://www.inkscape.org/) -->

<svg
   xmlns:dc="http://purl.org/dc/elements/1.1/"
   xmlns:cc="http://creativecommons.org/ns#"
   xmlns:rdf="http://www.w3.org/1999/02/22-rdf-syntax-ns#"
   xmlns:svg="http://www.w3.org/2000/svg"
   xmlns="http://www.w3.org/2000/svg"
   xmlns:sodipodi="http://sodipodi.sourceforge.net/DTD/sodipodi-0.dtd"
   xmlns:inkscape="http://www.inkscape.org/namespaces/inkscape"
   width="96"
   height="64"
   viewBox="0 0 96 64.000001"
   id="svg2"
   version="1.1"
   inkscape:version="0.91 r13725"
   sodipodi:docname="fan.svg"
   inkscape:export-filename="/home/victor/aleva/dungeons/data/img/fan.png"
   inkscape:export-xdpi="90"
   inkscape:export-ydpi="90">
  <defs
     id="defs4" />
  <sodipodi:namedview
     id="base"
     pagecolor="#ffffff"
     bordercolor="#666666"
     borderopacity="1.0"
     inkscape:pageopacity="0.0"
     inkscape:pageshadow="2"
     inkscape:zoom="8"
     inkscape:cx="70.677246"
     inkscape:cy="39.628906"
     inkscape:document-units="px"
     inkscape:current-layer="layer1"
     showgrid="false"
     inkscape:snap-global="false"
     units="px"
     inkscape:window-width="1920"
     inkscape:window-height="1026"
     inkscape:window-x="0"
     inkscape:window-y="0"
     inkscape:window-maximized="1" />
  <metadata
     id="metadata7">
    <rdf:RDF>
      <cc:Work
         rdf:about="">
        <dc:format>image/svg+xml</dc:format>
        <dc:type
           rdf:resource="http://purl.org/dc/dcmitype/StillImage" />
        <dc:title></dc:title>
      </cc:Work>
    </rdf:RDF>
  </metadata>
  <g
     inkscape:label="Layer 1"
     inkscape:groupmode="layer"
     id="layer1"
     transform="translate(0,-988.36216)">
    <rect
       style="fill:#bae0ff;fill-opacity:1;stroke:#000000;stroke-width:1;stroke-linecap:round;stroke-linejoin:round;stroke-miterlimit:4;stroke-dasharray:none;stroke-opacity:1"
       id="rect4133"
       width="31"
       height="6"
       x="0.5"
       y="988.86218" />
    <path
       style="fill:#bae0ff;fill-opacity:1;fill-rule:evenodd;stroke:#000000;stroke-width:1px;stroke-linecap:round;stroke-linejoin:round;stroke-opacity:1"
       d="m 14.5,1010.8622 c 0,0 -0.08837,-1.5 -5,-1.5 -4.8372093,0 -9,3 -9,3 0,0 4.0883719,3 9,3 4.911628,0 5,-1.5 5,-1.5 z"
       id="path4137"
       inkscape:connector-curvature="0"
       sodipodi:nodetypes="cscscc" />
    <path
       sodipodi:nodetypes="cscscc"
       inkscape:connector-curvature="0"
       id="path4139"
       d="m 17.500035,1010.8622 c 0,0 0.08837,-1.5 5,-1.5 4.837209,0 9,3 9,3 0,0 -4.088372,3 -9,3 -4.911628,0 -5,-1.5 -5,-1.5 z"
       style="fill:#bae0ff;fill-opacity:1;fill-rule:evenodd;stroke:#000000;stroke-width:1px;stroke-linecap:round;stroke-linejoin:round;stroke-opacity:1" />
    <path
       style="fill:#bae0ff;fill-opacity:1;stroke:#000000;stroke-width:1;stroke-linecap:round;stroke-linejoin:round;stroke-miterlimit:4;stroke-dasharray:none;stroke-opacity:1"
       d="m 0.5,994.86218 31,0 -2,4 -27,0 z"
       id="rect4141"
       inkscape:connector-curvature="0"
       sodipodi:nodetypes="ccccc" />
    <rect
       style="fill:#bae0ff;fill-opacity:1;stroke:#000000;stroke-width:0.99999994;stroke-linecap:round;stroke-linejoin:round;stroke-miterlimit:4;stroke-dasharray:none;stroke-opacity:1"
       id="rect4135"
       width="3"
       height="21"
       x="14.5"
       y="996.86212"
       ry="1.5"
       rx="1.5" />
    <rect
       y="988.86218"
       x="32.5"
       height="6"
       width="31"
       id="rect4144"
       style="fill:#bae0ff;fill-opacity:1;stroke:#000000;stroke-width:1;stroke-linecap:round;stroke-linejoin:round;stroke-miterlimit:4;stroke-dasharray:none;stroke-opacity:1" />
    <path
       sodipodi:nodetypes="ccccc"
       inkscape:connector-curvature="0"
       id="path4150"
       d="m 32.5,994.86218 31,0 -2,4 -27,0 z"
       style="fill:#bae0ff;fill-opacity:1;stroke:#000000;stroke-width:1;stroke-linecap:round;stroke-linejoin:round;stroke-miterlimit:4;stroke-dasharray:none;stroke-opacity:1" />
    <path
       style="fill:#bae0ff;fill-opacity:1;fill-rule:evenodd;stroke:#000000;stroke-width:1px;stroke-linecap:round;stroke-linejoin:round;stroke-opacity:1"
       d="m 49,1010.8622 c 0,0 0.06943,-1.5 3.928584,-1.5 3.800676,0 7.071451,3 7.071451,3 0,0 -3.212303,3 -7.071451,3 -3.859149,0 -3.928584,-1.5 -3.928584,-1.5 z"
       id="path4172"
       inkscape:connector-curvature="0"
       sodipodi:nodetypes="cscscc" />
    <rect
       rx="1.5"
       ry="1.5"
       y="996.86212"
       x="46.5"
       height="21"
       width="3"
       id="rect4152"
       style="fill:#bae0ff;fill-opacity:1;stroke:#000000;stroke-width:0.99999994;stroke-linecap:round;stroke-linejoin:round;stroke-miterlimit:4;stroke-dasharray:none;stroke-opacity:1" />
    <rect
       style="fill:#bae0ff;fill-opacity:1;stroke:#000000;stroke-width:1;stroke-linecap:round;stroke-linejoin:round;stroke-miterlimit:4;stroke-dasharray:none;stroke-opacity:1"
       id="rect4158"
       width="31"
       height="6"
       x="64.5"
       y="988.86218" />
    <path
       style="fill:#bae0ff;fill-opacity:1;stroke:#000000;stroke-width:1;stroke-linecap:round;stroke-linejoin:round;stroke-miterlimit:4;stroke-dasharray:none;stroke-opacity:1"
       d="m 64.5,994.86218 31,0 -2,4 -27,0 z"
       id="path4160"
       inkscape:connector-curvature="0"
       sodipodi:nodetypes="ccccc" />
    <path
       sodipodi:nodetypes="cscscc"
       inkscape:connector-curvature="0"
       id="path4174"
       d="m 80.5,1010.8622 c 0,0 0.03787,-1.5 2.142866,-1.5 2.073097,0 3.857158,3 3.857158,3 0,0 -1.752167,3 -3.857158,3 -2.104992,0 -2.142866,-1.5 -2.142866,-1.5 z"
       style="fill:#bae0ff;fill-opacity:1;fill-rule:evenodd;stroke:#000000;stroke-width:1px;stroke-linecap:round;stroke-linejoin:round;stroke-opacity:1" />
    <rect
       style="fill:#bae0ff;fill-opacity:1;stroke:#000000;stroke-width:0.99999994;stroke-linecap:round;stroke-linejoin:round;stroke-miterlimit:4;stroke-dasharray:none;stroke-opacity:1"
       id="rect4164"
       width="3"
       height="21"
       x="78.5"
       y="996.86212"
       ry="1.5"
       rx="1.5" />
    <path
       sodipodi:nodetypes="cscscc"
       inkscape:connector-curvature="0"
       id="path4170"
       d="m 46.999996,1010.8622 c 0,0 -0.0694,-1.5 -3.92858,-1.5 -3.80067,0 -7.07144,3 -7.07144,3 0,0 3.2123,3 7.07144,3 3.85914,0 3.92858,-1.5 3.92858,-1.5 z"
       style="fill:#bae0ff;fill-opacity:1;fill-rule:evenodd;stroke:#000000;stroke-width:0.99999994px;stroke-linecap:round;stroke-linejoin:round;stroke-opacity:1" />
    <path
       style="fill:#bae0ff;fill-opacity:1;fill-rule:evenodd;stroke:#000000;stroke-width:0.99999994px;stroke-linecap:round;stroke-linejoin:round;stroke-opacity:1"
       d="m 79.500016,1010.8622 c 0,0 -0.03785,-1.5 -2.142866,-1.5 -2.073098,0 -3.857158,3 -3.857158,3 0,0 1.752168,3 3.857158,3 2.104989,0 2.142866,-1.5 2.142866,-1.5 z"
       id="path4176"
       inkscape:connector-curvature="0"
       sodipodi:nodetypes="cscscc" />
    <rect
       y="1020.8622"
       x="0.5"
       height="6"
       width="31"
       id="rect4178"
       style="fill:#bae0ff;fill-opacity:1;stroke:#000000;stroke-width:1;stroke-linecap:round;stroke-linejoin:round;stroke-miterlimit:4;stroke-dasharray:none;stroke-opacity:1" />
    <path
       sodipodi:nodetypes="ccccc"
       inkscape:connector-curvature="0"
       id="path4180"
       d="m 0.5,1026.8622 31,0 -2,4 -27,0 z"
       style="fill:#bae0ff;fill-opacity:1;stroke:#000000;stroke-width:1;stroke-linecap:round;stroke-linejoin:round;stroke-miterlimit:4;stroke-dasharray:none;stroke-opacity:1" />
    <rect
       rx="1.5"
       ry="1.5"
       y="1028.8621"
       x="14.5"
       height="21"
       width="3"
       id="rect4184"
       style="fill:#bae0ff;fill-opacity:1;stroke:#000000;stroke-width:0.99999994;stroke-linecap:round;stroke-linejoin:round;stroke-miterlimit:4;stroke-dasharray:none;stroke-opacity:1" />
    <path
       sodipodi:nodetypes="cscscc"
       inkscape:connector-curvature="0"
       id="path4186"
       d="m 16,1042.8622 c 0,0 0,-1.5 0,-1.5 -10e-6,0 -10e-6,3 -10e-6,3 0,0 0,3 10e-6,3 0,0 0,-1.5 0,-1.5 z"
       style="fill:#bae0ff;fill-opacity:1;fill-rule:evenodd;stroke:#000000;stroke-width:0.99999994px;stroke-linecap:round;stroke-linejoin:round;stroke-opacity:1" />
    <rect
       y="1020.8622"
       x="-63.5"
       height="6"
       width="31"
       id="rect4188"
       style="fill:#bae0ff;fill-opacity:1;stroke:#000000;stroke-width:1;stroke-linecap:round;stroke-linejoin:round;stroke-miterlimit:4;stroke-dasharray:none;stroke-opacity:1"
       transform="scale(-1,1)" />
    <path
       sodipodi:nodetypes="ccccc"
       inkscape:connector-curvature="0"
       id="path4190"
       d="m 63.5,1026.8622 -31,0 2,4 27,0 z"
       style="fill:#bae0ff;fill-opacity:1;stroke:#000000;stroke-width:1;stroke-linecap:round;stroke-linejoin:round;stroke-miterlimit:4;stroke-dasharray:none;stroke-opacity:1" />
    <path
       style="fill:#bae0ff;fill-opacity:1;fill-rule:evenodd;stroke:#000000;stroke-width:1px;stroke-linecap:round;stroke-linejoin:round;stroke-opacity:1"
       d="m 47.5,1042.8622 c 0,0 -0.03787,-1.5 -2.142866,-1.5 -2.073097,0 -3.857158,3 -3.857158,3 0,0 1.752167,3 3.857158,3 2.104992,0 2.142866,-1.5 2.142866,-1.5 z"
       id="path4192"
       inkscape:connector-curvature="0"
       sodipodi:nodetypes="cscscc" />
    <rect
       rx="1.5"
       ry="1.5"
       y="1028.8621"
       x="-49.5"
       height="21"
       width="3"
       id="rect4194"
       style="fill:#bae0ff;fill-opacity:1;stroke:#000000;stroke-width:0.99999994;stroke-linecap:round;stroke-linejoin:round;stroke-miterlimit:4;stroke-dasharray:none;stroke-opacity:1"
       transform="scale(-1,1)" />
    <path
       sodipodi:nodetypes="cscscc"
       inkscape:connector-curvature="0"
       id="path4196"
       d="m 48.499984,1042.8622 c 0,0 0.03785,-1.5 2.142866,-1.5 2.073098,0 3.857158,3 3.857158,3 0,0 -1.752168,3 -3.857158,3 -2.104989,0 -2.142866,-1.5 -2.142866,-1.5 z"
       style="fill:#bae0ff;fill-opacity:1;fill-rule:evenodd;stroke:#000000;stroke-width:0.99999994px;stroke-linecap:round;stroke-linejoin:round;stroke-opacity:1" />
    <rect
       style="fill:#bae0ff;fill-opacity:1;stroke:#000000;stroke-width:1;stroke-linecap:round;stroke-linejoin:round;stroke-miterlimit:4;stroke-dasharray:none;stroke-opacity:1"
       id="rect4198"
       width="31"
       height="6"
       x="-95.5"
       y="1020.8622"
       transform="scale(-1,1)" />
    <path
       style="fill:#bae0ff;fill-opacity:1;stroke:#000000;stroke-width:1;stroke-linecap:round;stroke-linejoin:round;stroke-miterlimit:4;stroke-dasharray:none;stroke-opacity:1"
       d="m 95.5,1026.8622 -31,0 2,4 27,0 z"
       id="path4200"
       inkscape:connector-curvature="0"
       sodipodi:nodetypes="ccccc" />
    <path
       sodipodi:nodetypes="cscscc"
       inkscape:connector-curvature="0"
       id="path4202"
       d="m 79,1042.8622 c 0,0 -0.06943,-1.5 -3.928584,-1.5 -3.800676,0 -7.071451,3 -7.071451,3 0,0 3.212303,3 7.071451,3 3.859149,0 3.928584,-1.5 3.928584,-1.5 z"
       style="fill:#bae0ff;fill-opacity:1;fill-rule:evenodd;stroke:#000000;stroke-width:1px;stroke-linecap:round;stroke-linejoin:round;stroke-opacity:1" />
    <rect
       style="fill:#bae0ff;fill-opacity:1;stroke:#000000;stroke-width:0.99999994;stroke-linecap:round;stroke-linejoin:round;stroke-miterlimit:4;stroke-dasharray:none;stroke-opacity:1"
       id="rect4204"
       width="3"
       height="21"
       x="-81.5"
       y="1028.8621"
       ry="1.5"
       rx="1.5"
       transform="scale(-1,1)" />
    <path
       style="fill:#bae0ff;fill-opacity:1;fill-rule:evenodd;stroke:#000000;stroke-width:0.99999994px;stroke-linecap:round;stroke-linejoin:round;stroke-opacity:1"
       d="m 81.000004,1042.8622 c 0,0 0.0694,-1.5 3.92858,-1.5 3.80067,0 7.07144,3 7.07144,3 0,0 -3.2123,3 -7.07144,3 -3.85914,0 -3.92858,-1.5 -3.92858,-1.5 z"
       id="path4206"
       inkscape:connector-curvature="0"
       sodipodi:nodetypes="cscscc" />
  </g>
</svg>
