<?xml version="1.0" encoding="UTF-8" standalone="no"?>
<!-- Created with Inkscape (http://www.inkscape.org/) -->

<svg
   xmlns:dc="http://purl.org/dc/elements/1.1/"
   xmlns:cc="http://creativecommons.org/ns#"
   xmlns:rdf="http://www.w3.org/1999/02/22-rdf-syntax-ns#"
   xmlns:svg="http://www.w3.org/2000/svg"
   xmlns="http://www.w3.org/2000/svg"
   xmlns:sodipodi="http://sodipodi.sourceforge.net/DTD/sodipodi-0.dtd"
   xmlns:inkscape="http://www.inkscape.org/namespaces/inkscape"
   width="40"
   height="32"
   viewBox="0 0 40 32.000001"
   id="svg2"
   version="1.1"
   inkscape:version="0.91 r13725"
   sodipodi:docname="heart.svg"
   inkscape:export-filename="/home/victor/aleva/dungeons/data/img/heart.png"
   inkscape:export-xdpi="90"
   inkscape:export-ydpi="90">
  <defs
     id="defs4" />
  <sodipodi:namedview
     id="base"
     pagecolor="#ffffff"
     bordercolor="#666666"
     borderopacity="1.0"
     inkscape:pageopacity="0.0"
     inkscape:pageshadow="2"
     inkscape:zoom="1"
     inkscape:cx="20"
     inkscape:cy="17.080292"
     inkscape:document-units="px"
     inkscape:current-layer="layer1"
     showgrid="false"
     inkscape:snap-global="false"
     units="px"
     inkscape:window-width="1366"
     inkscape:window-height="714"
     inkscape:window-x="0"
     inkscape:window-y="0"
     inkscape:window-maximized="1" />
  <metadata
     id="metadata7">
    <rdf:RDF>
      <cc:Work
         rdf:about="">
        <dc:format>image/svg+xml</dc:format>
        <dc:type
           rdf:resource="http://purl.org/dc/dcmitype/StillImage" />
        <dc:title></dc:title>
      </cc:Work>
    </rdf:RDF>
  </metadata>
  <g
     inkscape:label="Layer 1"
     inkscape:groupmode="layer"
     id="layer1"
     transform="translate(0,-1020.3622)">
    <path
       style="fill:#ff0000;fill-opacity:1;fill-rule:evenodd;stroke:#000000;stroke-width:0.99999994px;stroke-linecap:round;stroke-linejoin:round;stroke-opacity:1"
       d="m 1.5012854,1041.6414 c 0,0 0.147124,-3.7792 3.9233083,-3.7792 3.7761842,0 4.5754055,3.1241 4.5754055,3.1241 0,0 0.7992228,-3.1241 4.5754078,-3.1241 3.776183,0 3.923308,3.7792 3.923308,3.7792 0,0 0.412559,5.5426 -8.498714,9.2208 -8.9112749,-3.6782 -8.4987156,-9.2208 -8.4987156,-9.2208 z"
       id="path4247"
       inkscape:connector-curvature="0"
       sodipodi:nodetypes="cscsccc" />
    <path
       sodipodi:nodetypes="cscsccc"
       inkscape:connector-curvature="0"
       id="path4252"
       d="m 22.001111,1041.8507 c 0,0 0.138472,-3.4885 3.692572,-3.4885 3.554099,0 4.306317,2.8838 4.306317,2.8838 0,0 0.752218,-2.8838 4.306318,-2.8838 3.554099,0 3.692571,3.4885 3.692571,3.4885 0,0 0.388296,5.1162 -7.998888,8.5115 -8.387185,-3.3953 -7.99889,-8.5115 -7.99889,-8.5115 z"
       style="fill:#ff0000;fill-opacity:1;fill-rule:evenodd;stroke:#000000;stroke-width:1px;stroke-linecap:round;stroke-linejoin:round;stroke-opacity:1" />
    <path
       sodipodi:nodetypes="cscsccc"
       inkscape:connector-curvature="0"
       id="path4254"
       d="m 0.50163131,1025.2228 c 0,0 0.16442942,-4.3606 4.38478429,-4.3606 4.2203546,0 5.1135841,3.6047 5.1135841,3.6047 0,0 0.8932303,-3.6047 5.1135853,-3.6047 4.220354,0 4.384784,4.3606 4.384784,4.3606 0,0 0.461086,6.3953 -9.498368,10.6394 -9.95945592,-4.2441 -9.49836969,-10.6394 -9.49836969,-10.6394 z"
       style="fill:#ff0000;fill-opacity:1;fill-rule:evenodd;stroke:#000000;stroke-width:1px;stroke-linecap:round;stroke-linejoin:round;stroke-opacity:1" />
    <path
       style="fill:#ff0000;fill-opacity:1;fill-rule:evenodd;stroke:#000000;stroke-width:0.99999994px;stroke-linecap:round;stroke-linejoin:round;stroke-opacity:1"
       d="m 21.00146,1025.4321 c 0,0 0.155777,-4.0699 4.154046,-4.0699 3.998268,0 4.844494,3.3644 4.844494,3.3644 0,0 0.846226,-3.3644 4.844495,-3.3644 3.998268,0 4.154045,4.0699 4.154045,4.0699 0,0 0.436823,5.9689 -8.998539,9.9301 -9.435364,-3.9612 -8.998541,-9.9301 -8.998541,-9.9301 z"
       id="path4256"
       inkscape:connector-curvature="0"
       sodipodi:nodetypes="cscsccc" />
  </g>
</svg>
