<?xml version="1.0" encoding="UTF-8" standalone="no"?>
<!-- Created with Inkscape (http://www.inkscape.org/) -->

<svg
   xmlns:dc="http://purl.org/dc/elements/1.1/"
   xmlns:cc="http://creativecommons.org/ns#"
   xmlns:rdf="http://www.w3.org/1999/02/22-rdf-syntax-ns#"
   xmlns:svg="http://www.w3.org/2000/svg"
   xmlns="http://www.w3.org/2000/svg"
   xmlns:sodipodi="http://sodipodi.sourceforge.net/DTD/sodipodi-0.dtd"
   xmlns:inkscape="http://www.inkscape.org/namespaces/inkscape"
   width="16"
   height="20"
   viewBox="0 0 16 20"
   id="svg2"
   version="1.1"
   inkscape:version="0.91 r13725"
   sodipodi:docname="key.svg"
   inkscape:export-filename="/home/victor/aleva/dungeons/data/img/key.png"
   inkscape:export-xdpi="90"
   inkscape:export-ydpi="90">
  <defs
     id="defs4" />
  <sodipodi:namedview
     id="base"
     pagecolor="#ffffff"
     bordercolor="#666666"
     borderopacity="1.0"
     inkscape:pageopacity="0.0"
     inkscape:pageshadow="2"
     inkscape:zoom="1"
     inkscape:cx="8"
     inkscape:cy="10"
     inkscape:document-units="px"
     inkscape:current-layer="layer1"
     showgrid="false"
     inkscape:snap-global="false"
     units="px"
     inkscape:window-width="1366"
     inkscape:window-height="714"
     inkscape:window-x="0"
     inkscape:window-y="0"
     inkscape:window-maximized="1" />
  <metadata
     id="metadata7">
    <rdf:RDF>
      <cc:Work
         rdf:about="">
        <dc:format>image/svg+xml</dc:format>
        <dc:type
           rdf:resource="http://purl.org/dc/dcmitype/StillImage" />
        <dc:title></dc:title>
      </cc:Work>
    </rdf:RDF>
  </metadata>
  <g
     inkscape:label="Layer 1"
     inkscape:groupmode="layer"
     id="layer1"
     transform="translate(0,-1032.3622)">
    <path
       style="fill:#eadc00;fill-opacity:1;stroke:#000000;stroke-width:1;stroke-linecap:butt;stroke-linejoin:round;stroke-miterlimit:4;stroke-dasharray:none;stroke-opacity:1"
       d="M 8.0839844 0.65625 A 7.3175182 4.051095 0 0 0 0.765625 4.7070312 A 7.3175182 4.051095 0 0 0 6.8242188 8.6933594 L 6.8242188 16.386719 L 0.73046875 16.205078 L 2.8476562 19.378906 L 10.181641 19.416016 L 10.279297 8.5683594 A 7.3175182 4.051095 0 0 0 15.402344 4.7070312 A 7.3175182 4.051095 0 0 0 8.0839844 0.65625 z M 8.15625 3.0292969 A 4.1788321 1.5875912 0 0 1 12.335938 4.6171875 A 4.1788321 1.5875912 0 0 1 8.15625 6.2050781 A 4.1788321 1.5875912 0 0 1 3.9785156 4.6171875 A 4.1788321 1.5875912 0 0 1 8.15625 3.0292969 z "
       transform="translate(0,1032.3622)"
       id="path4133" />
  </g>
</svg>
